<svg xmlns="http://www.w3.org/2000/svg" xmlns:xlink="http://www.w3.org/1999/xlink" width="125" height="24" viewBox="0 0 125 24"><defs><style>.a{clip-path:url(#a);}.b{fill:#3b3b3b;font-size:29px;font-family:ArciformSanscyr-lat-Regular, Arciform Sans cyr-lat;letter-spacing:-0.02em;}.c{fill:url(#b);}.d,.e,.f,.g{opacity:0.4;}.d{fill:url(#c);}.e{fill:url(#d);}.f{fill:url(#e);}.g{fill:url(#f);}.h{opacity:0.8;fill:url(#g);}.i{fill:#fff;}</style><clipPath id="a"><rect width="125" height="24"/></clipPath><linearGradient id="b" x1="0.5" y1="-0.86" x2="0.5" y2="0.954" gradientUnits="objectBoundingBox"><stop offset="0" stop-color="#fff"/><stop offset="0.141" stop-color="#b7fcff"/><stop offset="0.268" stop-color="#7df9ff"/><stop offset="0.376" stop-color="#53f8ff"/><stop offset="0.46" stop-color="#39f6ff"/><stop offset="0.511" stop-color="#30f6ff"/><stop offset="0.563" stop-color="#2eeffc"/><stop offset="0.641" stop-color="#29daf2"/><stop offset="0.735" stop-color="#21b9e3"/><stop offset="0.842" stop-color="#158bce"/><stop offset="0.958" stop-color="#0650b4"/><stop offset="1" stop-color="#0039a9"/></linearGradient><linearGradient id="c" x1="0.5" y1="0.526" x2="0.5" y2="0.034" gradientUnits="objectBoundingBox"><stop offset="0" stop-color="#fff"/><stop offset="0.315" stop-color="#74f9ff"/><stop offset="0.479" stop-color="#30f6ff"/><stop offset="0.564" stop-color="#2addf4"/><stop offset="0.745" stop-color="#199dd6"/><stop offset="1" stop-color="#0039a9"/></linearGradient><linearGradient id="d" y1="0.58" y2="-0.056" xlink:href="#c"/><linearGradient id="e" y1="0.771" y2="-0.042" xlink:href="#c"/><linearGradient id="f" y1="0.781" y2="0.246" xlink:href="#c"/><linearGradient id="g" x1="-0.419" y1="1.125" x2="0.571" y2="0.523" xlink:href="#c"/></defs><g class="a"><text class="b" transform="translate(0 22)"><tspan x="0" y="0" xml:space="preserve">w  terfree</tspan></text><g transform="translate(22.685 3.471)"><g transform="translate(0)"><path class="c" d="M266.921,162.539c1.515-2.473,5.375-7.139,5.375-7.139s3.86,4.667,5.376,7.139c2.06,3.36,2.449,5.8,1.8,8.1a7.483,7.483,0,0,1-14.36,0C264.471,168.338,264.861,165.9,266.921,162.539Z" transform="translate(-264.832 -155.4)"/><path class="d" d="M301.2,215.762c.645-2.3.255-4.744-1.8-8.1-.759-1.239-2.108-3.03-3.265-4.508a73.144,73.144,0,0,0-5.223,5.323c-2.592,3.146-3.343,5.588-3.013,8.042a7.753,7.753,0,0,0,.757,2.359,7.152,7.152,0,0,0,5.368,2.264A7.439,7.439,0,0,0,301.2,215.762Z" transform="translate(-286.556 -200.519)"/><path class="e" d="M265.116,215.762c-.645-2.3-.255-4.744,1.8-8.1.76-1.239,2.108-3.03,3.265-4.508a73.043,73.043,0,0,1,5.223,5.323c2.593,3.146,3.343,5.588,3.013,8.042a7.767,7.767,0,0,1-.757,2.359,7.153,7.153,0,0,1-5.368,2.264A7.439,7.439,0,0,1,265.116,215.762Z" transform="translate(-264.831 -200.519)"/><path class="f" d="M308.124,254.47a63.026,63.026,0,0,0-5.3,3.459c-3.113,2.416-4.339,4.561-4.548,6.945a7.559,7.559,0,0,0,.241,2.5,7.155,7.155,0,0,0,5.362,2.258,7.44,7.44,0,0,0,7.18-5.375c.645-2.3.255-4.744-1.8-8.1C308.956,255.659,308.561,255.081,308.124,254.47Z" transform="translate(-296.416 -249.011)"/><path class="g" d="M268.059,254.47a63.036,63.036,0,0,1,5.3,3.459c3.113,2.416,4.339,4.561,4.549,6.945a7.588,7.588,0,0,1-.241,2.5,7.156,7.156,0,0,1-5.363,2.258,7.439,7.439,0,0,1-7.18-5.375c-.645-2.3-.255-4.744,1.8-8.1C267.228,255.659,267.622,255.081,268.059,254.47Z" transform="translate(-264.837 -249.004)"/><path class="h" d="M273.419,278.11l-7.4,7.4a7.4,7.4,0,0,0,4.588,5.94l5.255-5.255Z" transform="translate(-265.954 -271.349)"/><path class="i" d="M341.095,281.279c.673-1.1,2.386-3.169,2.386-3.169s1.714,2.072,2.387,3.169a4.349,4.349,0,0,1,.8,3.6,3.322,3.322,0,0,1-6.375,0A4.345,4.345,0,0,1,341.095,281.279Z" transform="translate(-336.016 -271.349)"/></g></g></g></svg>