<svg width="1501" height="332" viewBox="0 0 1501 332" fill="none" xmlns="http://www.w3.org/2000/svg">
<path opacity="0.9" d="M1.3437 230.5C-11.4563 142.5 70.3437 40.1667 112.844 0C156.844 39.5 231.844 145.5 225.344 230.5C220.144 298.5 155.844 326.167 124.344 331.5C88.6771 334.5 14.1437 318.5 1.3437 230.5Z" fill="#0076C0"/>
<path opacity="0.9" d="M136.344 230.5C123.544 142.5 205.344 40.1667 247.844 0C291.844 39.5 366.844 145.5 360.344 230.5C355.144 298.5 290.844 326.167 259.344 331.5C223.677 334.5 149.144 318.5 136.344 230.5Z" fill="#0076C0"/>
<path opacity="0.9" d="M279.344 230.5C266.544 142.5 348.344 40.1667 390.844 0C434.844 39.5 509.844 145.5 503.344 230.5C498.144 298.5 433.844 326.167 402.344 331.5C366.677 334.5 292.144 318.5 279.344 230.5Z" fill="#35A4DC"/>
<path d="M664.75 185.188L680.062 104.25H703.422L678.188 218H654.594L636.078 141.906L617.562 218H593.969L568.734 104.25H592.094L607.484 185.031L626.234 104.25H646.078L664.75 185.188ZM776.938 194.562H735.844L728.031 218H703.109L745.453 104.25H767.172L809.75 218H784.828L776.938 194.562ZM742.172 175.578H770.609L756.312 133L742.172 175.578ZM896.625 123.234H861.781V218H838.344V123.234H803.969V104.25H896.625V123.234ZM978.5 168.703H933.5V199.172H986.312V218H910.062V104.25H986.156V123.234H933.5V150.344H978.5V168.703ZM1042.17 176.359H1023.5V218H1000.06V104.25H1042.33C1055.77 104.25 1066.13 107.245 1073.42 113.234C1080.71 119.224 1084.36 127.688 1084.36 138.625C1084.36 146.385 1082.67 152.87 1079.28 158.078C1075.95 163.234 1070.87 167.349 1064.05 170.422L1088.66 216.906V218H1063.5L1042.17 176.359ZM1023.5 157.375H1042.41C1048.29 157.375 1052.85 155.891 1056.08 152.922C1059.31 149.901 1060.92 145.76 1060.92 140.5C1060.92 135.135 1059.39 130.917 1056.31 127.844C1053.29 124.771 1048.63 123.234 1042.33 123.234H1023.5V157.375Z" fill="#1A84C6"/>
<path d="M1207.72 167.766H1159.98V218H1144.98V104.25H1215.45V116.594H1159.98V155.5H1207.72V167.766ZM1275.14 171.984H1248.42V218H1233.34V104.25H1271C1283.81 104.25 1293.66 107.167 1300.53 113C1307.46 118.833 1310.92 127.323 1310.92 138.469C1310.92 145.552 1308.99 151.724 1305.14 156.984C1301.34 162.245 1296.03 166.177 1289.2 168.781L1315.92 217.062V218H1299.83L1275.14 171.984ZM1248.42 159.719H1271.47C1278.92 159.719 1284.83 157.792 1289.2 153.938C1293.63 150.083 1295.84 144.927 1295.84 138.469C1295.84 131.438 1293.73 126.047 1289.52 122.297C1285.35 118.547 1279.31 116.646 1271.39 116.594H1248.42V159.719ZM1396.31 165.422H1347.02V205.734H1404.28V218H1332.02V104.25H1403.5V116.594H1347.02V153.156H1396.31V165.422ZM1487.25 165.422H1437.95V205.734H1495.22V218H1422.95V104.25H1494.44V116.594H1437.95V153.156H1487.25V165.422Z" fill="#35A4DC"/>
<path d="M966.484 277.27C966.027 281.18 964.58 284.201 962.143 286.334C959.722 288.45 956.497 289.508 952.469 289.508C948.102 289.508 944.598 287.942 941.957 284.811C939.333 281.679 938.021 277.49 938.021 272.242V268.688C938.021 265.251 938.631 262.23 939.85 259.623C941.085 257.016 942.829 255.019 945.08 253.631C947.331 252.226 949.938 251.523 952.9 251.523C956.827 251.523 959.976 252.624 962.346 254.824C964.715 257.008 966.095 260.038 966.484 263.914H961.584C961.161 260.969 960.238 258.836 958.816 257.516C957.411 256.195 955.439 255.535 952.9 255.535C949.786 255.535 947.34 256.686 945.562 258.988C943.802 261.29 942.922 264.566 942.922 268.814V272.395C942.922 276.406 943.76 279.597 945.436 281.967C947.111 284.337 949.456 285.521 952.469 285.521C955.177 285.521 957.251 284.912 958.689 283.693C960.145 282.458 961.11 280.316 961.584 277.27H966.484ZM983.826 289.508C980.102 289.508 977.072 288.289 974.736 285.852C972.4 283.397 971.232 280.122 971.232 276.025V275.162C971.232 272.437 971.749 270.008 972.781 267.875C973.831 265.725 975.286 264.049 977.148 262.848C979.027 261.629 981.059 261.02 983.242 261.02C986.814 261.02 989.59 262.196 991.57 264.549C993.551 266.902 994.541 270.27 994.541 274.654V276.609H975.93C975.997 279.318 976.785 281.51 978.291 283.186C979.814 284.844 981.744 285.674 984.08 285.674C985.739 285.674 987.144 285.335 988.295 284.658C989.446 283.981 990.453 283.084 991.316 281.967L994.186 284.201C991.883 287.739 988.43 289.508 983.826 289.508ZM983.242 264.879C981.346 264.879 979.755 265.573 978.469 266.961C977.182 268.332 976.387 270.262 976.082 272.75H989.844V272.395C989.708 270.008 989.065 268.163 987.914 266.859C986.763 265.539 985.206 264.879 983.242 264.879ZM1023.21 275.568C1023.21 279.749 1022.25 283.118 1020.34 285.674C1018.43 288.23 1015.84 289.508 1012.57 289.508C1009.23 289.508 1006.61 288.45 1004.7 286.334V299.562H1000V261.527H1004.29L1004.52 264.574C1006.43 262.204 1009.09 261.02 1012.49 261.02C1015.79 261.02 1018.4 262.264 1020.31 264.752C1022.24 267.24 1023.21 270.702 1023.21 275.137V275.568ZM1018.51 275.035C1018.51 271.938 1017.85 269.492 1016.53 267.697C1015.21 265.903 1013.4 265.006 1011.1 265.006C1008.25 265.006 1006.12 266.267 1004.7 268.789V281.916C1006.1 284.421 1008.25 285.674 1011.15 285.674C1013.4 285.674 1015.18 284.785 1016.5 283.008C1017.84 281.214 1018.51 278.556 1018.51 275.035ZM1029.63 289V261.527H1040.35C1044 261.527 1046.8 262.171 1048.75 263.457C1050.71 264.727 1051.7 266.597 1051.7 269.068C1051.7 270.338 1051.31 271.489 1050.55 272.521C1049.79 273.537 1048.67 274.316 1047.18 274.857C1048.83 275.247 1050.16 276.008 1051.16 277.143C1052.18 278.277 1052.69 279.631 1052.69 281.205C1052.69 283.727 1051.75 285.657 1049.89 286.994C1048.05 288.331 1045.43 289 1042.05 289H1029.63ZM1034.33 276.939V285.217H1042.1C1044.06 285.217 1045.53 284.853 1046.49 284.125C1047.47 283.397 1047.96 282.373 1047.96 281.053C1047.96 278.311 1045.95 276.939 1041.92 276.939H1034.33ZM1034.33 273.182H1040.4C1044.8 273.182 1047 271.895 1047 269.322C1047 266.749 1044.92 265.421 1040.75 265.336H1034.33V273.182ZM1076.68 261.527H1081.38V289H1076.68V268.967L1064.01 289H1059.31V261.527H1064.01V281.586L1076.68 261.527ZM1099.94 285.674C1101.61 285.674 1103.08 285.166 1104.33 284.15C1105.58 283.135 1106.28 281.865 1106.41 280.342H1110.86C1110.77 281.916 1110.23 283.414 1109.23 284.836C1108.23 286.258 1106.89 287.392 1105.22 288.238C1103.56 289.085 1101.8 289.508 1099.94 289.508C1096.2 289.508 1093.22 288.264 1091 285.775C1088.8 283.27 1087.7 279.851 1087.7 275.518V274.73C1087.7 272.056 1088.19 269.678 1089.17 267.596C1090.15 265.514 1091.56 263.897 1093.39 262.746C1095.23 261.595 1097.41 261.02 1099.91 261.02C1102.99 261.02 1105.55 261.942 1107.58 263.787C1109.63 265.632 1110.72 268.027 1110.86 270.973H1106.41C1106.28 269.195 1105.6 267.74 1104.38 266.605C1103.18 265.454 1101.69 264.879 1099.91 264.879C1097.53 264.879 1095.67 265.742 1094.35 267.469C1093.05 269.178 1092.4 271.658 1092.4 274.908V275.797C1092.4 278.962 1093.05 281.4 1094.35 283.109C1095.65 284.819 1097.52 285.674 1099.94 285.674ZM1128.81 285.166L1130.43 283.16C1132.26 280.79 1133.3 277.236 1133.55 272.496L1133.99 261.527H1151.68V285.166H1155.21V297.074H1150.52V289H1131.35V297.074H1126.65L1126.67 285.166H1128.81ZM1134.37 285.166H1146.99V265.869H1138.53L1138.25 272.42C1137.96 277.887 1136.67 282.136 1134.37 285.166ZM1159.17 275.01C1159.17 272.318 1159.7 269.898 1160.75 267.748C1161.81 265.598 1163.29 263.939 1165.17 262.771C1167.06 261.604 1169.22 261.02 1171.64 261.02C1175.38 261.02 1178.4 262.314 1180.71 264.904C1183.02 267.494 1184.18 270.939 1184.18 275.238V275.568C1184.18 278.243 1183.67 280.646 1182.63 282.779C1181.62 284.895 1180.15 286.546 1178.24 287.73C1176.35 288.915 1174.16 289.508 1171.69 289.508C1167.97 289.508 1164.95 288.213 1162.63 285.623C1160.32 283.033 1159.17 279.605 1159.17 275.34V275.01ZM1163.9 275.568C1163.9 278.615 1164.6 281.061 1166 282.906C1167.43 284.751 1169.32 285.674 1171.69 285.674C1174.08 285.674 1175.97 284.743 1177.38 282.881C1178.78 281.002 1179.49 278.378 1179.49 275.01C1179.49 271.997 1178.77 269.559 1177.33 267.697C1175.91 265.818 1174.01 264.879 1171.64 264.879C1169.32 264.879 1167.45 265.801 1166.03 267.646C1164.61 269.492 1163.9 272.132 1163.9 275.568ZM1201.09 285.674C1202.77 285.674 1204.23 285.166 1205.49 284.15C1206.74 283.135 1207.43 281.865 1207.57 280.342H1212.01C1211.93 281.916 1211.39 283.414 1210.39 284.836C1209.39 286.258 1208.05 287.392 1206.38 288.238C1204.72 289.085 1202.96 289.508 1201.09 289.508C1197.35 289.508 1194.37 288.264 1192.16 285.775C1189.96 283.27 1188.86 279.851 1188.86 275.518V274.73C1188.86 272.056 1189.35 269.678 1190.33 267.596C1191.31 265.514 1192.71 263.897 1194.54 262.746C1196.39 261.595 1198.56 261.02 1201.07 261.02C1204.15 261.02 1206.71 261.942 1208.74 263.787C1210.78 265.632 1211.88 268.027 1212.01 270.973H1207.57C1207.43 269.195 1206.76 267.74 1205.54 266.605C1204.34 265.454 1202.85 264.879 1201.07 264.879C1198.68 264.879 1196.83 265.742 1195.51 267.469C1194.2 269.178 1193.55 271.658 1193.55 274.908V275.797C1193.55 278.962 1194.2 281.4 1195.51 283.109C1196.81 284.819 1198.67 285.674 1201.09 285.674ZM1237.71 265.336H1228.49V289H1223.79V265.336H1214.75V261.527H1237.71V265.336ZM1258.83 289C1258.56 288.458 1258.34 287.493 1258.17 286.105C1255.99 288.374 1253.38 289.508 1250.35 289.508C1247.64 289.508 1245.42 288.746 1243.67 287.223C1241.95 285.682 1241.08 283.736 1241.08 281.383C1241.08 278.522 1242.17 276.305 1244.33 274.73C1246.52 273.139 1249.58 272.344 1253.53 272.344H1258.1V270.186C1258.1 268.544 1257.6 267.24 1256.62 266.275C1255.64 265.294 1254.19 264.803 1252.28 264.803C1250.61 264.803 1249.2 265.226 1248.07 266.072C1246.93 266.919 1246.37 267.943 1246.37 269.145H1241.64C1241.64 267.773 1242.12 266.453 1243.09 265.184C1244.07 263.897 1245.39 262.882 1247.05 262.137C1248.73 261.392 1250.56 261.02 1252.56 261.02C1255.73 261.02 1258.21 261.815 1260 263.406C1261.79 264.98 1262.73 267.156 1262.79 269.932V282.576C1262.79 285.098 1263.11 287.104 1263.76 288.594V289H1258.83ZM1251.04 285.42C1252.51 285.42 1253.91 285.039 1255.23 284.277C1256.55 283.516 1257.5 282.525 1258.1 281.307V275.67H1254.41C1248.66 275.67 1245.78 277.354 1245.78 280.723C1245.78 282.195 1246.27 283.346 1247.25 284.176C1248.24 285.005 1249.5 285.42 1251.04 285.42ZM1270.59 289V261.527H1281.3C1284.96 261.527 1287.76 262.171 1289.71 263.457C1291.67 264.727 1292.65 266.597 1292.65 269.068C1292.65 270.338 1292.27 271.489 1291.51 272.521C1290.75 273.537 1289.62 274.316 1288.13 274.857C1289.79 275.247 1291.12 276.008 1292.12 277.143C1293.13 278.277 1293.64 279.631 1293.64 281.205C1293.64 283.727 1292.71 285.657 1290.85 286.994C1289 288.331 1286.39 289 1283 289H1270.59ZM1275.29 276.939V285.217H1283.05C1285.02 285.217 1286.48 284.853 1287.45 284.125C1288.43 283.397 1288.92 282.373 1288.92 281.053C1288.92 278.311 1286.91 276.939 1282.88 276.939H1275.29ZM1275.29 273.182H1281.35C1285.75 273.182 1287.96 271.895 1287.96 269.322C1287.96 266.749 1285.87 265.421 1281.71 265.336H1275.29V273.182ZM1308.42 277.295H1304.99V289H1300.27V261.527H1304.99V273.156H1308.06L1317.31 261.527H1322.99L1312.13 274.73L1323.91 289H1317.94L1308.42 277.295ZM1345.72 261.527H1350.42V289H1345.72V268.967L1333.05 289H1328.35V261.527H1333.05V281.586L1345.72 261.527ZM1371.29 289V261.527H1382C1385.66 261.527 1388.46 262.171 1390.41 263.457C1392.37 264.727 1393.35 266.597 1393.35 269.068C1393.35 270.338 1392.97 271.489 1392.21 272.521C1391.45 273.537 1390.32 274.316 1388.83 274.857C1390.49 275.247 1391.82 276.008 1392.82 277.143C1393.83 278.277 1394.34 279.631 1394.34 281.205C1394.34 283.727 1393.41 285.657 1391.55 286.994C1389.7 288.331 1387.09 289 1383.7 289H1371.29ZM1375.98 276.939V285.217H1383.75C1385.72 285.217 1387.18 284.853 1388.15 284.125C1389.13 283.397 1389.62 282.373 1389.62 281.053C1389.62 278.311 1387.6 276.939 1383.58 276.939H1375.98ZM1375.98 273.182H1382.05C1386.45 273.182 1388.65 271.895 1388.65 269.322C1388.65 266.749 1386.57 265.421 1382.41 265.336H1375.98V273.182ZM1399.32 275.01C1399.32 272.318 1399.84 269.898 1400.89 267.748C1401.96 265.598 1403.43 263.939 1405.31 262.771C1407.21 261.604 1409.36 261.02 1411.79 261.02C1415.53 261.02 1418.55 262.314 1420.85 264.904C1423.17 267.494 1424.33 270.939 1424.33 275.238V275.568C1424.33 278.243 1423.81 280.646 1422.78 282.779C1421.76 284.895 1420.3 286.546 1418.39 287.73C1416.49 288.915 1414.31 289.508 1411.84 289.508C1408.11 289.508 1405.09 288.213 1402.77 285.623C1400.47 283.033 1399.32 279.605 1399.32 275.34V275.01ZM1404.04 275.568C1404.04 278.615 1404.74 281.061 1406.15 282.906C1407.57 284.751 1409.47 285.674 1411.84 285.674C1414.22 285.674 1416.12 284.743 1417.52 282.881C1418.93 281.002 1419.63 278.378 1419.63 275.01C1419.63 271.997 1418.91 269.559 1417.47 267.697C1416.05 265.818 1414.15 264.879 1411.79 264.879C1409.47 264.879 1407.6 265.801 1406.17 267.646C1404.75 269.492 1404.04 272.132 1404.04 275.568ZM1428.16 285.166L1429.79 283.16C1431.62 280.79 1432.66 277.236 1432.91 272.496L1433.34 261.527H1451.04V285.166H1454.57V297.074H1449.87V289H1430.7V297.074H1426L1426.03 285.166H1428.16ZM1433.72 285.166H1446.34V265.869H1437.89L1437.61 272.42C1437.32 277.887 1436.02 282.136 1433.72 285.166ZM1464.9 270.998H1472.04C1475.15 271.032 1477.61 271.844 1479.43 273.436C1481.24 275.027 1482.14 277.185 1482.14 279.91C1482.14 282.652 1481.21 284.853 1479.35 286.512C1477.49 288.171 1474.98 289 1471.83 289H1460.21V261.527H1464.9V270.998ZM1491.94 289H1487.22V261.527H1491.94V289ZM1464.9 274.832V285.166H1471.88C1473.65 285.166 1475.01 284.717 1475.97 283.82C1476.94 282.906 1477.42 281.662 1477.42 280.088C1477.42 278.564 1476.95 277.32 1476 276.355C1475.07 275.374 1473.76 274.866 1472.06 274.832H1464.9Z" fill="#1A84C6"/>
</svg>
