<svg xmlns="http://www.w3.org/2000/svg" width="26" height="26" viewBox="0 0 26 26"><defs><style>.a{fill:none;}.b{fill:#e02121;}</style></defs><path class="a" d="M0,0H26V26H0Z"/><path class="b" d="M22.662,4.16a7.187,7.187,0,0,1,.372,9.711l.014.014-.387.388-1.546-1.557.132-.132.127-.147A4.976,4.976,0,0,0,21.292,5.9l-.176-.186A4.895,4.895,0,0,0,14.628,5.3l-.2.163L13,6.708,11.572,5.464a4.895,4.895,0,0,0-6.6.153,4.975,4.975,0,0,0-.511,6.622l.161.2.125.147,9.795,9.86L13,24,2.953,13.886l.014-.014A7.187,7.187,0,0,1,3.34,4.147,7.071,7.071,0,0,1,13,3.8a7.07,7.07,0,0,1,9.66.361ZM20.652,15.2v3.3h3.279v2.2h-3.28V24H18.466V20.7H15.186V18.5h3.279V15.2Z" transform="translate(0 0)"/></svg>