<?xml version="1.0"?>
<svg xmlns="http://www.w3.org/2000/svg" xmlns:xlink="http://www.w3.org/1999/xlink" version="1.1" id="Capa_1" x="0px" y="0px" viewBox="0 0 512.001 512.001" style="enable-background:new 0 0 512.001 512.001;" xml:space="preserve" width="512px" height="512px"><g><g>
	<g>
		<path d="M512.001,317.09V194.912h-48.797c-4.312-14.652-10.172-28.78-17.507-42.216l34.519-34.519l-86.391-86.392l-34.52,34.519    c-13.435-7.335-27.565-13.195-42.216-17.507V0.001H194.912v48.796c-14.652,4.312-28.78,10.171-42.216,17.507l-34.519-34.519    l-86.392,86.392l34.519,34.518c-7.335,13.436-13.195,27.565-17.507,42.216H0v122.177h48.796    c4.312,14.652,10.171,28.78,17.507,42.216l-34.519,34.519l86.392,86.392l34.518-34.519c13.436,7.335,27.565,13.195,42.216,17.507    V512h122.177h0.001v-48.796c14.652-4.312,28.781-10.172,42.216-17.507l34.52,34.519l86.391-86.392l-34.519-34.518    c7.335-13.436,13.195-27.565,17.507-42.216H512.001z M439.77,287.087l-2.716,11.574c-4.578,19.513-12.277,38.077-22.88,55.178    l-6.266,10.104l29.879,29.878l-43.963,43.964l-29.88-29.879l-10.104,6.266c-17.102,10.603-35.666,18.302-55.179,22.88    l-11.573,2.716v42.23h-62.175V439.77l-11.574-2.716c-19.513-4.578-38.077-12.277-55.178-22.88l-10.104-6.266l-29.878,29.879    l-43.964-43.964l29.88-29.879l-6.266-10.104c-10.603-17.102-18.302-35.666-22.88-55.179l-2.716-11.573h-42.23v-62.175H72.23    l2.716-11.574c4.578-19.513,12.277-38.077,22.88-55.178l6.266-10.104l-29.879-29.878l43.964-43.964l29.878,29.88l10.104-6.266    c17.102-10.603,35.666-18.302,55.179-22.88l11.573-2.716v-42.23h62.175v42.229l11.573,2.716    c19.513,4.578,38.077,12.277,55.179,22.88l10.104,6.266l29.88-29.879l43.963,43.964l-29.879,29.878l6.266,10.104    c10.604,17.102,18.302,35.666,22.88,55.178l2.716,11.574H482v62.175H439.77z" data-original="#000000" class="active-path" data-old_color="#000000" fill="#808D93"/>
	</g>
</g><g id="SVGCleanerId_0">
	<g>
		<path d="M256,177.525c-43.271,0-78.475,35.204-78.475,78.475s35.204,78.475,78.475,78.475s78.475-35.204,78.475-78.475    S299.27,177.525,256,177.525z M256,304.474c-26.728,0-48.473-21.745-48.473-48.473c0-26.728,21.745-48.473,48.473-48.473    s48.473,21.745,48.473,48.473C304.473,282.729,282.728,304.474,256,304.474z" data-original="#000000" class="active-path" data-old_color="#000000" fill="#808D93"/>
	</g>
</g><g>
	<g>
		<path d="M256,177.525c-43.271,0-78.475,35.204-78.475,78.475s35.204,78.475,78.475,78.475s78.475-35.204,78.475-78.475    S299.27,177.525,256,177.525z M256,304.474c-26.728,0-48.473-21.745-48.473-48.473c0-26.728,21.745-48.473,48.473-48.473    s48.473,21.745,48.473,48.473C304.473,282.729,282.728,304.474,256,304.474z" data-original="#000000" class="active-path" data-old_color="#000000" fill="#808D93"/>
	</g>
</g><g id="SVGCleanerId_1">
	<g>
		<path d="M256,117.524c-76.356,0-138.477,62.12-138.477,138.476S179.643,394.477,256,394.477S394.477,332.356,394.477,256    S332.356,117.524,256,117.524z M256,364.477c-59.814,0-108.476-48.662-108.476-108.476c0-59.814,48.662-108.475,108.476-108.475    s108.476,48.661,108.476,108.475S315.813,364.477,256,364.477z" data-original="#000000" class="active-path" data-old_color="#000000" fill="#808D93"/>
	</g>
</g><g>
	<g>
		<path d="M256,117.524c-76.356,0-138.477,62.12-138.477,138.476S179.643,394.477,256,394.477S394.477,332.356,394.477,256    S332.356,117.524,256,117.524z M256,364.477c-59.814,0-108.476-48.662-108.476-108.476c0-59.814,48.662-108.475,108.476-108.475    s108.476,48.661,108.476,108.475S315.813,364.477,256,364.477z" data-original="#000000" class="active-path" data-old_color="#000000" fill="#808D93"/>
	</g>
</g></g> </svg>
